<?xml version="1.0" encoding="UTF-8"?>
<!-- Uploaded to: SVG Repo, www.svgrepo.com, Generator: SVG Repo Mixer Tools -->
<svg id="XMLID_103_" width="800px" height="800px" version="1.1" viewBox="0 0 24 24" xml:space="preserve" xmlns="http://www.w3.org/2000/svg"><path d="m22.243 22.602h-20.485v-1.767h2.2348c-1.4898-4.4175 1.4898-6.1845 3.4453-7.4214 0.83804-0.5301 1.6761-0.97184 1.6761-1.4136 0-0.44175-0.83804-0.97184-1.6761-1.4136-1.9554-1.2369-4.9351-2.9155-3.4453-7.4214h-2.2348v-1.767h20.485v1.767h-2.2348c1.4898 4.4175-1.4898 6.1845-3.4453 7.4214-0.93116 0.44175-1.7692 0.97184-1.7692 1.4136 0 0.44175 0.83804 0.97184 1.6761 1.4136 1.9554 1.2369 4.9351 3.0039 3.4453 7.4214h2.3279zm-16.202-1.767h11.919c1.4898-3.534-0.46558-4.6825-2.421-5.9194-1.3036-0.7068-2.6072-1.5019-2.6072-2.9155s1.3036-2.2087 2.6072-2.9155c1.9554-1.2369 3.9109-2.3854 2.421-5.9194h-11.919c-1.4898 3.534 0.46558 4.6825 2.421 5.9194 1.3036 0.7068 2.6072 1.5019 2.6072 2.9155s-1.3036 2.2087-2.6072 2.9155c-1.9554 1.2369-3.9109 2.3854-2.421 5.9194z" fill="#aa4400"/><path d="m16.47 21.718h-9.1253c-0.27935-1.3252 0.18623-2.1204 2.1417-3.799 0.74492-0.61845 1.6761-1.3252 2.5141-2.4738 0.93116 1.0602 1.8623 1.8553 2.5141 2.4738 1.9554 1.767 2.421 2.032 1.9554 3.799z" fill="#aa4400"/><path d="m9.579 6.699c-0.65181 1.1485-0.65181 1.1485 0.83804 1.8553 0.46558 0.1767 1.0243 0.44175 1.4898 0.79515 0.46558-0.3534 1.1174-0.61845 1.4898-0.79515 1.583-0.7068 1.583-0.7068 0.93116-1.8553" fill="#aa4400"/></svg>
